<svg width="800" height="450" viewBox="0 0 800 450" fill="none" xmlns="http://www.w3.org/2000/svg">
  <rect width="800" height="450" rx="8" fill="#F9FAFB"/>
  <rect x="10" y="10" width="780" height="70" rx="6" fill="white"/>
  <rect x="20" y="20" width="40" height="40" rx="4" fill="#2563EB"/>
  <path d="M40 30L50 40L40 50L30 40L40 30Z" fill="white"/>
  <rect x="70" y="30" width="120" height="20" rx="4" fill="#1F2937"/>
  <rect x="240" y="25" width="320" height="30" rx="6" fill="#F3F4F6"/>
  <rect x="570" y="25" width="70" height="30" rx="6" fill="#2563EB"/>
  <rect x="650" y="25" width="120" height="30" rx="6" fill="#2563EB"/>
  <rect x="10" y="90" width="300" height="350" rx="6" fill="white"/>
  <rect x="320" y="90" width="470" height="350" rx="6" fill="#E5E7EB"/>
  <rect x="30" y="110" width="120" height="20" rx="4" fill="#1F2937"/>
  <rect x="30" y="140" width="260" height="120" rx="6" fill="#F3F4F6"/>
  <rect x="30" y="270" width="260" height="120" rx="6" fill="#F3F4F6"/>
  <rect x="350" y="110" width="300" height="300" rx="6" fill="#D1D5DB"/>
  <circle cx="400" cy="180" r="10" fill="#2563EB"/>
  <circle cx="480" cy="230" r="10" fill="#2563EB"/>
  <circle cx="530" cy="150" r="10" fill="#2563EB"/>
  <circle cx="600" cy="280" r="10" fill="#2563EB"/>
  <circle cx="440" cy="320" r="10" fill="#2563EB"/>
</svg>